<svg width="970" height="219" viewBox="0 0 970 219" fill="none" xmlns="http://www.w3.org/2000/svg">
<g filter="url(#filter0_d_104_2)">
<path d="M392.977 210.308H386.205L248.148 75.0702V136.636C248.148 147.013 248.206 156.063 248.322 163.788C248.437 171.512 248.611 178.199 248.842 183.849C249.19 189.383 249.595 194.052 250.058 197.857C250.637 201.661 251.332 204.774 252.142 207.195V207.887H226.094V207.195C226.904 204.774 227.599 201.661 228.177 197.857C228.756 194.052 229.219 189.383 229.567 183.849C229.914 178.199 230.146 171.512 230.261 163.788C230.377 156.063 230.435 147.013 230.435 136.636V93.0559C230.435 82.6796 230.377 73.6868 230.261 66.0775C230.146 58.3529 229.914 51.7236 229.567 46.1896C229.219 40.5402 228.756 35.8133 228.177 32.0086C227.599 28.204 226.904 25.091 226.094 22.6699V21.9781H236.86L375.091 157.908V93.0559C375.091 82.6796 375.033 73.6868 374.917 66.0775C374.801 58.3529 374.57 51.7236 374.222 46.1896C373.991 40.5402 373.643 35.8133 373.18 32.0086C372.717 28.204 372.081 25.091 371.27 22.6699V21.9781H397.145V22.6699C396.334 25.091 395.64 28.204 395.061 32.0086C394.598 35.8133 394.193 40.5402 393.845 46.1896C393.498 51.7236 393.267 58.3529 393.151 66.0775C393.035 73.6868 392.977 82.6796 392.977 93.0559V210.308Z" fill="#303031"/>
<path d="M609.7 210.308H602.927L464.871 75.0702V136.636C464.871 147.013 464.928 156.063 465.044 163.788C465.16 171.512 465.334 178.199 465.565 183.849C465.913 189.383 466.318 194.052 466.781 197.857C467.36 201.661 468.054 204.774 468.865 207.195V207.887H442.816V207.195C443.627 204.774 444.321 201.661 444.9 197.857C445.479 194.052 445.942 189.383 446.289 183.849C446.637 178.199 446.868 171.512 446.984 163.788C447.1 156.063 447.158 147.013 447.158 136.636V93.0559C447.158 82.6796 447.1 73.6868 446.984 66.0775C446.868 58.3529 446.637 51.7236 446.289 46.1896C445.942 40.5402 445.479 35.8133 444.9 32.0086C444.321 28.204 443.627 25.091 442.816 22.6699V21.9781H453.583L591.813 157.908V93.0559C591.813 82.6796 591.755 73.6868 591.64 66.0775C591.524 58.3529 591.292 51.7236 590.945 46.1896C590.714 40.5402 590.366 35.8133 589.903 32.0086C589.44 28.204 588.803 25.091 587.993 22.6699V21.9781H613.868V22.6699C613.057 25.091 612.363 28.204 611.784 32.0086C611.321 35.8133 610.915 40.5402 610.568 46.1896C610.221 51.7236 609.989 58.3529 609.873 66.0775C609.758 73.6868 609.7 82.6796 609.7 93.0559V210.308Z" fill="#303031"/>
<path d="M659.539 21.9781C670.884 21.9781 682.52 21.9781 694.444 21.9781C706.368 21.8628 717.424 21.7476 727.612 21.6324C737.8 21.4018 746.541 21.1712 753.834 20.9406C761.243 20.71 766.106 20.364 768.421 19.9028L761.649 38.5804C758.523 37.7733 754.992 37.0239 751.056 36.3322C747.583 35.7557 743.357 35.2367 738.379 34.7756C733.517 34.1991 727.844 33.9109 721.361 33.9109C719.045 33.9109 716.382 34.0263 713.372 34.2569C710.362 34.3722 707.468 34.545 704.69 34.7756C701.448 35.0061 698.149 35.2367 694.791 35.4673V103.778C704.169 103.663 712.62 103.432 720.145 103.086C727.67 102.74 734.095 102.279 739.421 101.703C745.672 101.242 751.172 100.607 755.918 99.8004L751.75 120.38C745.383 119.573 738.958 118.881 732.475 118.305C726.918 117.728 720.782 117.267 714.067 116.921C707.352 116.46 700.927 116.23 694.791 116.23V194.744C705.558 194.744 715.456 194.34 724.486 193.533C733.517 192.611 741.389 191.631 748.104 190.593C755.976 189.325 763.096 187.884 769.463 186.27L765.469 208.925C763.733 208.809 760.896 208.637 756.96 208.406C753.14 208.291 749.088 208.175 744.804 208.06C740.636 208.06 736.7 208.002 732.995 207.887C729.291 207.887 726.744 207.887 725.355 207.887H659.539V207.195C660.349 204.774 661.044 201.661 661.623 197.857C662.318 194.052 662.839 189.383 663.186 183.849C663.649 178.199 663.996 171.512 664.228 163.788C664.459 156.063 664.575 147.013 664.575 136.636V93.0559C664.575 82.6796 664.459 73.6868 664.228 66.0775C663.996 58.3529 663.649 51.7236 663.186 46.1896C662.839 40.5402 662.318 35.8133 661.623 32.0086C661.044 28.204 660.349 25.091 659.539 22.6699V21.9781Z" fill="#303031"/>
<path d="M965 169.322L951.455 201.488C948.097 202.987 944.277 204.371 939.993 205.639C935.826 206.792 931.484 207.772 926.969 208.579C922.454 209.386 917.823 209.962 913.077 210.308C908.446 210.769 904.047 211 899.879 211C885.292 211 871.747 208.867 859.243 204.601C846.856 200.335 836.147 194.11 827.117 185.924C818.087 177.623 811.025 167.477 805.931 155.487C800.837 143.496 798.29 129.776 798.29 114.327C798.29 100.723 800.953 88.0983 806.278 76.4538C811.604 64.8092 818.955 54.7212 828.333 46.1896C837.71 37.5426 848.766 30.7981 861.501 25.9558C874.351 21.1135 888.244 18.6924 903.178 18.6924C906.536 18.6924 910.067 18.8654 913.771 19.2113C917.592 19.4419 921.354 19.8453 925.059 20.4217C928.764 20.9982 932.353 21.69 935.826 22.497C939.299 23.1888 942.54 23.9381 945.55 24.7452L958.575 55.8743L956.491 57.0847C953.365 53.28 949.602 49.7637 945.203 46.5355C940.92 43.3074 936.173 40.5978 930.963 38.4073C925.869 36.1014 920.486 34.3145 914.813 33.0463C909.141 31.778 903.352 31.144 897.448 31.144C887.839 31.144 879.04 32.8156 871.052 36.1591C863.18 39.5026 856.407 44.4026 850.734 50.859C845.177 57.2001 840.836 64.9822 837.71 74.2056C834.584 83.429 833.021 93.8629 833.021 105.507C833.021 118.651 834.526 130.929 837.536 142.343C840.547 153.642 845.062 163.5 851.082 171.916C857.102 180.217 864.627 186.789 873.657 191.631C882.687 196.358 893.222 198.721 905.262 198.721C911.051 198.721 916.724 198.03 922.281 196.646C927.953 195.147 933.279 193.072 938.257 190.42C943.351 187.769 947.982 184.598 952.149 180.909C956.317 177.104 959.906 172.896 962.916 168.284L965 169.322Z" fill="#303031"/>
<path d="M3 98.4728C3 44.0877 47.2707 0 101.881 0C162.56 0 211.75 48.9864 211.75 109.414V112.035C211.75 164.973 168.657 207.887 115.5 207.887H24.5076C12.6293 207.887 3 198.298 3 186.468V98.4728Z" fill="#EEEBEB"/>
<path d="M24.5076 98.937C24.5076 55.4289 59.9242 20.1587 103.613 20.1587C152.156 20.1587 191.507 59.3478 191.507 107.69V109.787C191.507 152.137 157.033 186.468 114.507 186.468H46.015C34.1367 186.468 24.5076 176.879 24.5076 165.05V98.937Z" fill="#4E5CA6"/>
<path d="M52.3408 83.1547C52.3408 78.2839 56.3058 74.3353 61.1968 74.3353H120.659C125.55 74.3353 129.515 78.2839 129.515 83.1547V129.772C129.515 134.643 125.55 138.591 120.659 138.591H61.1968C56.3058 138.591 52.3408 134.643 52.3408 129.772V83.1547Z" fill="#F4F4F4"/>
<path d="M135.568 124.023C124.782 116.472 129.536 111.672 129.515 106.463C129.493 101.255 124.707 98.4586 135.431 90.819C149.596 80.7278 156.679 75.6822 162.165 78.4772C167.651 81.2722 167.687 89.9443 167.759 107.289C167.831 124.633 167.866 133.305 162.404 136.145C156.941 138.985 149.817 133.998 135.568 124.023Z" fill="#F4F4F4"/>
</g>
<defs>
<filter id="filter0_d_104_2" x="0" y="0" width="970" height="219" filterUnits="userSpaceOnUse" color-interpolation-filters="sRGB">
<feFlood flood-opacity="0" result="BackgroundImageFix"/>
<feColorMatrix in="SourceAlpha" type="matrix" values="0 0 0 0 0 0 0 0 0 0 0 0 0 0 0 0 0 0 127 0" result="hardAlpha"/>
<feOffset dx="1" dy="4"/>
<feGaussianBlur stdDeviation="2"/>
<feComposite in2="hardAlpha" operator="out"/>
<feColorMatrix type="matrix" values="0 0 0 0 0 0 0 0 0 0 0 0 0 0 0 0 0 0 0.25 0"/>
<feBlend mode="normal" in2="BackgroundImageFix" result="effect1_dropShadow_104_2"/>
<feBlend mode="normal" in="SourceGraphic" in2="effect1_dropShadow_104_2" result="shape"/>
</filter>
</defs>
</svg>
