<svg width="321" height="321" viewBox="0 0 321 321" fill="none" xmlns="http://www.w3.org/2000/svg">
<g filter="url(#filter0_d_105_4)">
<path d="M3 91.5692C3 40.9969 43.9969 0 94.5692 0H224.431C275.003 0 316 40.9969 316 91.5692V221.431C316 272.003 275.003 313 224.431 313H94.5692C43.9969 313 3 272.003 3 221.431V91.5692Z" fill="#F4F4F4"/>
<path d="M129.628 210.574C152.746 209.573 174.143 197.442 193.818 174.181C205.869 176.432 215.46 181.059 222.592 188.063C229.971 195.066 233.66 203.946 233.66 214.701C233.66 222.455 229.233 229.834 220.379 236.837C211.771 243.841 200.95 249.468 187.915 253.72C174.88 257.973 162.338 260.099 150.287 260.099C138.482 260.099 126.185 256.222 113.396 248.468C100.607 240.464 90.0316 230.709 81.6697 219.203C73.3078 207.697 69.1268 196.817 69.1268 186.562C69.1268 166.802 73.5537 146.167 82.4075 124.656C91.5072 102.895 104.05 84.7611 120.036 70.2539C136.022 55.7466 153.976 48.493 173.897 48.493C186.194 48.493 197.876 50.7441 208.943 55.2464C220.01 59.7486 228.864 65.7516 235.504 73.2554C242.145 80.7591 245.465 88.513 245.465 96.517C245.465 104.271 242.145 111.274 235.504 117.527C228.864 123.53 220.133 126.532 209.312 126.532C205.869 126.532 202.303 126.157 198.613 125.406C192.465 110.149 185.702 99.3934 178.324 93.1403C162.092 103.896 149.795 118.903 141.433 138.163C133.071 157.422 128.89 177.057 128.89 197.067C128.89 200.069 129.136 204.571 129.628 210.574Z" fill="#4E5CA6"/>
</g>
<defs>
<filter id="filter0_d_105_4" x="0" y="0" width="321" height="321" filterUnits="userSpaceOnUse" color-interpolation-filters="sRGB">
<feFlood flood-opacity="0" result="BackgroundImageFix"/>
<feColorMatrix in="SourceAlpha" type="matrix" values="0 0 0 0 0 0 0 0 0 0 0 0 0 0 0 0 0 0 127 0" result="hardAlpha"/>
<feOffset dx="1" dy="4"/>
<feGaussianBlur stdDeviation="2"/>
<feComposite in2="hardAlpha" operator="out"/>
<feColorMatrix type="matrix" values="0 0 0 0 0 0 0 0 0 0 0 0 0 0 0 0 0 0 0.25 0"/>
<feBlend mode="normal" in2="BackgroundImageFix" result="effect1_dropShadow_105_4"/>
<feBlend mode="normal" in="SourceGraphic" in2="effect1_dropShadow_105_4" result="shape"/>
</filter>
</defs>
</svg>
